<svg width="39" height="39" viewBox="0 0 39 39" fill="none" xmlns="http://www.w3.org/2000/svg">
<path d="M29.25 21.4175V16.25C29.2477 13.9476 28.4306 11.7203 26.9435 9.96251C25.4564 8.20476 23.3952 7.02999 21.125 6.64625V4.875C21.125 4.44402 20.9538 4.0307 20.649 3.72595C20.3443 3.4212 19.931 3.25 19.5 3.25C19.069 3.25 18.6557 3.4212 18.351 3.72595C18.0462 4.0307 17.875 4.44402 17.875 4.875V6.64625C15.6048 7.02999 13.5436 8.20476 12.0565 9.96251C10.5694 11.7203 9.75233 13.9476 9.75 16.25V21.4175C8.80173 21.7528 7.98037 22.3731 7.39852 23.1935C6.81668 24.0139 6.50283 24.9942 6.5 26V29.25C6.5 29.681 6.67121 30.0943 6.97595 30.399C7.2807 30.7038 7.69402 30.875 8.125 30.875H13.2275C13.6017 32.252 14.4186 33.4676 15.5522 34.3342C16.6858 35.2008 18.0731 35.6704 19.5 35.6704C20.9269 35.6704 22.3142 35.2008 23.4478 34.3342C24.5814 33.4676 25.3983 32.252 25.7725 30.875H30.875C31.306 30.875 31.7193 30.7038 32.024 30.399C32.3288 30.0943 32.5 29.681 32.5 29.25V26C32.4972 24.9942 32.1833 24.0139 31.6015 23.1935C31.0196 22.3731 30.1983 21.7528 29.25 21.4175V21.4175ZM13 16.25C13 14.5261 13.6848 12.8728 14.9038 11.6538C16.1228 10.4348 17.7761 9.75 19.5 9.75C21.2239 9.75 22.8772 10.4348 24.0962 11.6538C25.3152 12.8728 26 14.5261 26 16.25V21.125H13V16.25ZM19.5 32.5C18.9328 32.4966 18.3764 32.3448 17.8861 32.0597C17.3958 31.7746 16.9886 31.3662 16.705 30.875H22.295C22.0114 31.3662 21.6042 31.7746 21.1139 32.0597C20.6236 32.3448 20.0672 32.4966 19.5 32.5ZM29.25 27.625H9.75V26C9.75 25.569 9.92121 25.1557 10.226 24.851C10.5307 24.5462 10.944 24.375 11.375 24.375H27.625C28.056 24.375 28.4693 24.5462 28.774 24.851C29.0788 25.1557 29.25 25.569 29.25 26V27.625Z" fill="black"/>
<circle cx="28.5" cy="11.5" r="6.5" fill="#FF5454" stroke="black" stroke-width="2"/>
</svg>
