<svg width="58" height="58" viewBox="0 0 58 58" fill="none" xmlns="http://www.w3.org/2000/svg">
<path fill-rule="evenodd" clip-rule="evenodd" d="M53.1037 47.8653C52.6858 48.3386 52.2534 48.8299 51.8208 49.3518C51.0595 50.2709 49.4693 49.6135 48.7562 48.6601L43.5581 41.7226C44.9292 41.6102 46.3001 41.3995 47.6711 41.0882L50.0978 45.7876C50.3684 46.3018 51.0184 46.4329 51.4395 46.0337L54.2914 43.3334C54.636 43.0079 55.7797 43.0316 56.2123 43.265C55.5818 45.0762 54.4307 46.3724 53.1037 47.8653ZM36.4098 48.8903C36.3658 49.0405 36.3585 49.2001 36.3951 49.3542L36.901 51.9538C36.857 52.1866 36.4391 52.964 35.3833 53.9648C34.3423 54.9506 33.5798 55.3075 33.3379 55.3374C33.1033 55.1007 33.008 53.7038 33.3599 52.1724L35.8966 41.2266C36.7397 41.4129 37.6047 41.5544 38.4846 41.6526L36.4098 48.8903ZM37.3043 31.702C38.7706 28.4875 38.7486 24.8313 37.2383 20.8362L34.313 3.16345C34.2103 2.58171 34.5769 2.02443 35.1194 1.91987C35.662 1.81768 36.1825 2.20685 36.2778 2.7893L37.6121 10.8188C37.5022 11.2779 37.4436 11.7558 37.4436 12.2495C37.4436 16.1685 40.959 18.9678 44.4305 17.8969L46.1386 19.128L51.6006 21.6852C52.5298 22.1204 52.7019 23.338 53.0816 24.6426L54.5479 29.6652C54.6109 29.8812 53.9693 30.336 53.4335 30.2861C53.0302 30.2485 52.8323 29.8498 52.473 28.7438L50.9774 24.1026C50.8967 23.8565 50.7281 23.656 50.5008 23.5514L46.2631 21.5798C45.6311 21.2837 44.9255 21.8667 45.0681 22.6183L46.3805 29.6863C46.4098 29.8309 46.4684 29.9662 46.5564 30.0817C48.4847 32.7018 50.6328 35.0727 53.0888 37.2943C45.8014 40.6377 37.8319 40.8161 31.6222 37.8006C34.2544 36.2025 36.2045 34.1168 37.3043 31.702ZM42.9203 8.24025C40.8602 8.24025 39.1812 10.0389 39.1812 12.2495C39.1812 14.4601 40.86 16.2587 42.9203 16.2587C44.9878 16.2587 46.6594 14.4601 46.6594 12.2495C46.6594 10.0389 44.9877 8.24025 42.9203 8.24025ZM31.4537 3.31682C31.3186 4.19778 30.5 4.20946 30.1926 4.75853L24.0268 15.7783C23.8216 16.1439 23.5063 16.3381 23.1104 16.3381H20.933C19.3787 16.3381 18.1176 17.6918 18.1176 19.3568V29.7988C18.1176 30.8419 18.0149 31.7177 17.7657 32.7278L16.0134 39.9075C14.4445 36.2033 13.7186 32.6587 13.858 29.3429C13.8801 28.828 13.5061 28.3925 13.0295 28.3704C12.553 28.3468 12.1425 28.7461 12.1204 29.2611C11.9444 33.555 13.0735 38.16 15.4783 42.9483L18.0663 49.7222L18.4036 52.9296C18.4924 53.7928 19.0805 55.4126 19.0194 55.9507C18.6301 56.1223 18.3264 56.2295 17.8829 56.0301C17.5751 55.8933 17.3404 55.641 17.2232 55.3179L10.2142 36.9022C9.86229 35.9919 9.70097 35.1845 9.66428 34.2019L9.53966 31.1369L9.37835 19.7068C9.37096 18.9058 9.08516 18.1833 8.55726 17.6173L2.28149 10.8849C1.3363 9.8712 1.68616 8.19353 2.88265 7.68937L9.29769 5.00004C9.20394 5.73321 9.2208 6.42035 9.36369 7.14294L5.14803 9.20255C4.58811 9.47437 4.46544 10.2506 4.89141 10.7118L7.20088 13.1912C8.32255 14.3861 9.79628 14.9301 11.3578 14.7194L21.3213 13.3838C21.5706 13.3515 21.7905 13.2069 21.9299 12.9892L27.9857 3.60922C28.5886 2.68182 29.7519 1.84076 30.5591 1.93948C30.8746 1.97813 31.052 2.14248 31.2556 2.43085C31.4464 2.70128 31.5123 2.98354 31.4537 3.31682ZM11.7759 52.4514L13.0516 49.3047L11.7173 45.8017L11.27 47.6302C11.2407 47.7631 11.1747 47.8873 11.094 47.9919L9.5324 49.9886L9.66441 54.1393C9.71887 55.8677 10.3444 55.9611 10.6322 56.044C11.0492 55.4305 11.4339 53.2722 11.7759 52.4514ZM14.7158 1.86871C12.6557 1.86871 10.9767 3.66734 10.9767 5.87795C10.9767 8.08925 12.6556 9.88802 14.7158 9.88802C16.7759 9.88802 18.4549 8.08939 18.4549 5.87795C18.4549 3.66734 16.7761 1.86871 14.7158 1.86871ZM57.2607 41.7737C56.249 41.0489 54.1522 40.9804 53.1403 41.934L51.0949 43.8671L49.4232 40.6322C51.3513 40.0678 53.2577 39.3107 55.0905 38.365C55.6768 38.0634 55.7535 37.2184 55.259 36.795C52.5097 34.4359 50.1489 31.9164 48.0448 29.099L47.099 24.0018L49.4597 25.0999L50.8307 29.3529C51.168 30.4071 51.6812 31.9997 53.2868 32.1444C54.2253 32.2301 55.2811 31.7616 55.8456 31.0046C56.2707 30.4362 56.4028 29.7633 56.2121 29.1085L54.7458 24.0852C54.2926 22.5688 54.0103 20.7794 52.2971 19.977L46.9084 17.4535L46.2119 16.9425C47.5462 15.8702 48.404 14.1652 48.404 12.2493C48.404 9.009 45.9406 6.3739 42.92 6.3739C41.3584 6.3739 39.9434 7.08218 38.9463 8.21494L37.9932 2.46213C37.5747 -0.0944085 34.4564 -0.855379 33.0518 1.29711C32.9785 1.40876 32.9125 1.52514 32.8538 1.6461C32.4289 0.814361 31.6413 0.196603 30.757 0.086483C29.3347 -0.0864836 28.0297 0.943391 27.5311 1.39069C27.1645 1.71854 26.8493 2.0966 26.556 2.54625L20.72 11.5835L11.1451 12.8672C10.1114 13.0071 9.17295 12.662 8.43251 11.872L7.01026 10.3438L10.0089 8.87928C10.962 10.5985 12.7143 11.7541 14.7158 11.7541C17.7364 11.7541 20.1924 9.11815 20.1924 5.87781C20.1924 2.6383 17.7364 0 14.7158 0C12.8096 0 11.1307 1.05337 10.1483 2.63983L2.25231 5.95178C-0.132372 6.95092 -0.769584 10.2548 1.04998 12.2046L7.32576 18.9369C7.53842 19.1618 7.64099 19.4156 7.64099 19.7341L7.80231 31.1768V31.2028L7.91966 34.2805C7.97101 35.4746 8.17628 36.5021 8.60148 37.6082L10.625 42.9294L9.63523 46.952L7.98566 49.0619C7.84639 49.2388 7.773 49.4636 7.78039 49.6947L7.92705 54.2039C8.00771 56.7149 9.13677 57.5544 10.0752 57.8169C10.3006 57.88 10.4887 57.9481 10.735 57.9481C12.5581 57.9481 12.8715 54.4515 13.367 53.1953L13.9681 51.7166L15.6104 56.023C16.2326 57.6506 17.9579 58.4249 19.4741 57.7642L19.7527 57.6439C21.6659 56.812 20.263 53.9463 20.1339 52.7213L19.782 49.385C19.7746 49.2994 19.7527 49.216 19.7234 49.1366L17.1867 42.4877L19.4521 33.1997C19.7306 32.0425 19.8554 30.9938 19.8554 29.7989V19.357C19.8554 18.7218 20.3392 18.2038 20.9331 18.2038H23.1106C24.1224 18.2038 25.0021 17.6692 25.5226 16.7377L31.5858 5.8995C31.6873 5.7859 32.344 5.50657 32.7956 4.70778L35.5375 21.2595C35.5522 21.3255 35.5668 21.3899 35.5888 21.4512C39.086 30.5749 33.1768 35.0816 29.3351 36.9549C28.704 37.2653 28.6414 38.2363 29.2765 38.6176C30.8015 39.535 32.4584 40.2613 34.2107 40.7888L31.674 51.7237C31.1608 53.939 31.1828 56.6912 32.9277 57.1574C34.3428 57.5205 36.3459 55.5806 36.916 54.9933C37.8105 54.0688 38.8296 52.7331 38.6096 51.6153L38.1403 49.2074L40.2591 41.7887L41.3955 41.8139L47.4 49.8291C48.753 51.6369 51.5715 52.4737 53.1259 50.5854C54.9506 48.3689 56.9579 46.6658 57.9134 43.6936C58.1478 42.9662 57.8985 42.2311 57.2607 41.7737Z" fill="black"/>
</svg>
