<svg width="29" height="29" viewBox="0 0 29 29" fill="none" xmlns="http://www.w3.org/2000/svg">
<path d="M26.3501 8.6715C26.351 8.51387 26.3208 8.35761 26.2612 8.21168C26.2016 8.06575 26.1137 7.93303 26.0027 7.82111L20.9244 2.74275C20.8125 2.63174 20.6797 2.54392 20.5338 2.48431C20.3879 2.42471 20.2316 2.39449 20.074 2.39541C19.9164 2.39449 19.7601 2.42471 19.6142 2.48431C19.4682 2.54392 19.3355 2.63174 19.2236 2.74275L15.834 6.13231L2.74287 19.2235C2.63186 19.3354 2.54404 19.4681 2.48443 19.614C2.42483 19.76 2.39462 19.9162 2.39553 20.0739V25.1522C2.39553 25.4699 2.52172 25.7745 2.74633 25.9991C2.97095 26.2238 3.2756 26.35 3.59326 26.35H8.67162C8.83921 26.3591 9.00685 26.3329 9.16367 26.273C9.32048 26.2132 9.46297 26.1211 9.58189 26.0026L22.6012 12.9115L26.0027 9.58177C26.1121 9.46569 26.2011 9.33208 26.2662 9.18652C26.2778 9.09105 26.2778 8.99454 26.2662 8.89906C26.2718 8.84331 26.2718 8.78714 26.2662 8.73138L26.3501 8.6715ZM8.18055 23.9545H4.79098V20.5649L16.6844 8.6715L20.074 12.0611L8.18055 23.9545ZM21.7628 10.3723L18.3732 6.9827L20.074 5.29391L23.4516 8.6715L21.7628 10.3723Z" fill="black"/>
</svg>
