<svg width="17" height="26" viewBox="0 0 17 26" fill="none" xmlns="http://www.w3.org/2000/svg">
<path d="M16.2352 9.90783C16.1275 9.74851 15.9824 9.61809 15.8125 9.52803C15.6426 9.43797 15.4532 9.39101 15.2609 9.3913H11.7391V7.04348H14.3217C14.6331 7.04348 14.9317 6.9198 15.1518 6.69965C15.372 6.4795 15.4957 6.18091 15.4957 5.86957V1.17391C15.4957 0.862572 15.372 0.563982 15.1518 0.343831C14.9317 0.12368 14.6331 0 14.3217 0H10.5652C8.75944 0 7.02762 0.717343 5.75074 1.99422C4.47386 3.2711 3.75652 5.00292 3.75652 6.8087V9.3913H1.17391C0.862572 9.3913 0.563983 9.51498 0.343831 9.73514C0.12368 9.95529 0 10.2539 0 10.5652V15.2609C0 15.5722 0.12368 15.8708 0.343831 16.091C0.563983 16.3111 0.862572 16.4348 1.17391 16.4348H3.75652V24.6522C3.75652 24.9635 3.8802 25.2621 4.10035 25.4823C4.3205 25.7024 4.61909 25.8261 4.93043 25.8261H10.5652C10.8766 25.8261 11.1751 25.7024 11.3953 25.4823C11.6154 25.2621 11.7391 24.9635 11.7391 24.6522V16.4348H13.3826C13.6177 16.435 13.8475 16.3646 14.0421 16.2328C14.2368 16.1009 14.3874 15.9136 14.4743 15.6952L16.3526 10.9996C16.4235 10.8218 16.4499 10.6294 16.4294 10.4391C16.409 10.2488 16.3423 10.0664 16.2352 9.90783ZM12.5843 14.087H10.5652C10.2539 14.087 9.95529 14.2106 9.73514 14.4308C9.51498 14.6509 9.3913 14.9495 9.3913 15.2609V23.4783H6.10435V15.2609C6.10435 14.9495 5.98067 14.6509 5.76052 14.4308C5.54036 14.2106 5.24178 14.087 4.93043 14.087H2.34783V11.7391H4.93043C5.24178 11.7391 5.54036 11.6154 5.76052 11.3953C5.98067 11.1751 6.10435 10.8766 6.10435 10.5652V6.8087C6.10745 5.62655 6.57842 4.49371 7.41433 3.65781C8.25023 2.8219 9.38307 2.35092 10.5652 2.34783H13.1478V4.69565H12.2087C11.8112 4.63775 11.4061 4.66205 11.0184 4.76705C10.6307 4.87205 10.2687 5.05551 9.95478 5.30609C9.76428 5.50553 9.61614 5.74149 9.5193 5.99974C9.42245 6.25798 9.37891 6.53317 9.3913 6.8087V10.5652C9.3913 10.8766 9.51498 11.1751 9.73514 11.3953C9.95529 11.6154 10.2539 11.7391 10.5652 11.7391H13.5235L12.5843 14.087Z" fill="black"/>
</svg>
