<svg width="57" height="57" viewBox="0 0 57 57" fill="none" xmlns="http://www.w3.org/2000/svg">
<path d="M12.9929 28.7267C12.9016 28.1865 12.946 27.6315 13.1218 27.1136C13.2976 26.5956 13.5992 26.1317 13.9983 25.7652L32.2631 8.99137C32.8048 8.46823 33.2317 7.83356 33.5153 7.12934C33.799 6.42512 33.933 5.66739 33.9086 4.9063L33.8432 2.86613C33.8117 1.88759 33.0425 1.10174 32.0845 1.0697L30.0872 1.00286C29.3421 0.977901 28.6003 1.11482 27.9108 1.40456C27.2214 1.69429 26.6001 2.13024 26.0879 2.68358L9.66668 21.3405C9.30786 21.7482 8.85367 22.0562 8.3466 22.2358C7.83952 22.4155 7.29614 22.4608 6.76726 22.3676L4.0066 21.8809L1 24.952L7.83174 27.6394L10.4626 34.6178L13.4694 31.5468L12.9929 28.7267Z" stroke="black" stroke-width="2" stroke-miterlimit="10" stroke-linecap="round" stroke-linejoin="round"/>
<path d="M16.8043 13.2327L4.74023 4.66275L7.48329 1.86104L22.0717 7.24906L16.8043 13.2327Z" stroke="black" stroke-width="2" stroke-miterlimit="10" stroke-linecap="round" stroke-linejoin="round"/>
<path d="M32.642 27.5604L29.899 30.3622L21.9688 18.4441L27.7932 13.098L32.642 27.5604Z" stroke="black" stroke-width="2" stroke-miterlimit="10" stroke-linecap="round" stroke-linejoin="round"/>
<path d="M55.9559 27.2856C53.658 16.7423 44.4477 8.86044 33.4344 8.86044C33.0779 8.86044 32.7224 8.8685 32.3693 8.88579C32.3344 8.92151 32.2993 8.95724 32.2632 8.99181L13.9988 25.7648C13.5997 26.1313 13.2982 26.5952 13.1224 27.1131C12.9465 27.631 12.9021 28.186 12.9933 28.7261L13.4696 31.5471L10.4627 34.6176L10.457 34.6026C11.5299 46.6007 21.4075 56 33.4344 56C44.5185 56 53.7762 48.0156 55.9994 37.371" stroke="black" stroke-width="2" stroke-miterlimit="10" stroke-linecap="round" stroke-linejoin="round"/>
<path d="M55.9559 27.2856C54.9712 22.7674 52.7191 18.7378 49.5975 15.609H43.3899C41.9718 15.609 40.8221 16.7835 40.8221 18.2331V19.623C40.8221 21.0717 41.9718 22.2461 43.3899 22.2461C43.8162 22.2454 44.2385 22.3309 44.6323 22.4976C45.0262 22.6643 45.3839 22.909 45.6848 23.2175C45.9869 23.5248 46.2264 23.8901 46.3897 24.2925C46.5529 24.6948 46.6366 25.1261 46.6359 25.5616V29.9697C46.636 31.5447 46.0236 33.0553 44.9334 34.1691L38.5701 40.6689C38.279 40.9661 38.0481 41.319 37.8905 41.7074C37.733 42.0957 37.6519 42.512 37.6519 42.9324V46.4C37.6519 47.2494 37.9823 48.0631 38.5701 48.6634L43.4632 53.6627C49.7838 50.5427 54.498 44.5645 56.0003 37.371" stroke="black" stroke-width="2" stroke-miterlimit="10" stroke-linecap="round" stroke-linejoin="round"/>
<path d="M30.5517 42.1523L26.7101 46.0752C26.5477 46.2411 26.4188 46.438 26.3309 46.6547C26.243 46.8714 26.1978 47.1037 26.1979 47.3383V54.8165C20.2432 52.8113 15.3613 48.394 12.6592 42.6986L15.9751 39.3127C16.1372 39.1467 16.3297 39.0151 16.5417 38.9253C16.7537 38.8355 16.981 38.7893 17.2104 38.7895H23.3265C23.7902 38.7895 24.2348 38.6016 24.5631 38.2663L25.6553 37.1507C26.3378 36.4535 27.4446 36.4535 28.1271 37.1507L30.5517 39.6273C31.2344 40.3245 31.2344 41.4551 30.5517 42.1523Z" stroke="black" stroke-width="2" stroke-miterlimit="10" stroke-linecap="round" stroke-linejoin="round"/>
</svg>
