<svg width="27" height="27" viewBox="0 0 27 27" fill="none" xmlns="http://www.w3.org/2000/svg">
<path d="M13.5 7.875C12.3875 7.875 11.2999 8.2049 10.3749 8.82298C9.44989 9.44107 8.72892 10.3196 8.30318 11.3474C7.87743 12.3752 7.76604 13.5062 7.98308 14.5974C8.20012 15.6885 8.73585 16.6908 9.52252 17.4775C10.3092 18.2641 11.3115 18.7999 12.4026 19.0169C13.4938 19.234 14.6248 19.1226 15.6526 18.6968C16.6804 18.2711 17.5589 17.5501 18.177 16.6251C18.7951 15.7001 19.125 14.6125 19.125 13.5C19.125 12.0082 18.5324 10.5774 17.4775 9.52252C16.4226 8.46763 14.9918 7.875 13.5 7.875V7.875ZM13.5 16.875C12.8325 16.875 12.18 16.6771 11.625 16.3062C11.0699 15.9354 10.6374 15.4083 10.3819 14.7916C10.1265 14.1749 10.0596 13.4963 10.1898 12.8416C10.3201 12.1869 10.6415 11.5855 11.1135 11.1135C11.5855 10.6415 12.1869 10.3201 12.8416 10.1898C13.4963 10.0596 14.1749 10.1265 14.7916 10.3819C15.4083 10.6374 15.9354 11.0699 16.3062 11.625C16.6771 12.18 16.875 12.8325 16.875 13.5C16.875 14.3951 16.5194 15.2536 15.8865 15.8865C15.2536 16.5194 14.3951 16.875 13.5 16.875ZM19.125 6.75C18.9025 6.75 18.685 6.81598 18.5 6.9396C18.315 7.06321 18.1708 7.23891 18.0856 7.44448C18.0005 7.65005 17.9782 7.87625 18.0216 8.09448C18.065 8.31271 18.1722 8.51316 18.3295 8.67049C18.4868 8.82783 18.6873 8.93498 18.9055 8.97838C19.1238 9.02179 19.35 8.99951 19.5555 8.91436C19.7611 8.82922 19.9368 8.68502 20.0604 8.50002C20.184 8.31501 20.25 8.0975 20.25 7.875C20.25 7.57663 20.1315 7.29048 19.9205 7.07951C19.7095 6.86853 19.4234 6.75 19.125 6.75ZM24.6825 9.27C24.6639 8.3086 24.4812 7.35744 24.1425 6.4575C23.8284 5.63857 23.3455 4.89487 22.7253 4.27466C22.1051 3.65445 21.3614 3.17162 20.5425 2.8575C19.6426 2.51876 18.6914 2.33614 17.73 2.3175C16.6388 2.25 16.2788 2.25 13.5 2.25C10.7212 2.25 10.3612 2.25 9.27 2.3175C8.3086 2.33614 7.35744 2.51876 6.4575 2.8575C5.63857 3.17162 4.89487 3.65445 4.27466 4.27466C3.65445 4.89487 3.17162 5.63857 2.8575 6.4575C2.51876 7.35744 2.33614 8.3086 2.3175 9.27C2.25 10.3725 2.25 10.7325 2.25 13.5C2.25 16.2675 2.25 16.6275 2.3175 17.73C2.33614 18.6914 2.51876 19.6426 2.8575 20.5425C3.17162 21.3614 3.65445 22.1051 4.27466 22.7253C4.89487 23.3455 5.63857 23.8284 6.4575 24.1425C7.35744 24.4812 8.3086 24.6639 9.27 24.6825C10.395 24.6825 10.7212 24.75 13.5 24.75C16.2788 24.75 16.6388 24.75 17.73 24.6825C18.6914 24.6639 19.6426 24.4812 20.5425 24.1425C21.3614 23.8284 22.1051 23.3455 22.7253 22.7253C23.3455 22.1051 23.8284 21.3614 24.1425 20.5425C24.4812 19.6426 24.6639 18.6914 24.6825 17.73C24.6825 16.605 24.75 16.2675 24.75 13.5C24.75 10.7325 24.75 10.3725 24.6825 9.27ZM22.4325 17.6288C22.4128 18.3427 22.2799 19.049 22.0388 19.7213C21.8394 20.2526 21.5243 20.733 21.1163 21.1275C20.7241 21.5357 20.2428 21.8476 19.71 22.0388C19.0361 22.2897 18.3251 22.4266 17.6062 22.4438C16.5487 22.4438 16.2225 22.5 13.4887 22.5C10.755 22.5 10.44 22.5 9.3825 22.5C8.66477 22.4815 7.9546 22.3485 7.27875 22.1062C6.74736 21.9069 6.267 21.5918 5.8725 21.1837C5.4643 20.7916 5.15241 20.3103 4.96125 19.7775C4.71128 19.1072 4.57442 18.4001 4.55625 17.685C4.55625 16.56 4.55625 16.2788 4.55625 13.5563C4.55625 10.8338 4.55625 10.5075 4.55625 9.4275C4.57564 8.70886 4.71245 7.99823 4.96125 7.32375C5.15538 6.79571 5.46697 6.3187 5.8725 5.92875C6.26465 5.52055 6.74596 5.20866 7.27875 5.0175C7.95261 4.76651 8.66361 4.62963 9.3825 4.6125C10.44 4.5 10.7662 4.5 13.5 4.5C16.2338 4.5 16.56 4.5 17.6175 4.5C18.3399 4.51837 19.0544 4.65519 19.7325 4.905C20.2605 5.09913 20.7376 5.41072 21.1275 5.81625C21.5357 6.2084 21.8476 6.68971 22.0388 7.2225C22.3141 7.90713 22.4702 8.63391 22.5 9.37125C22.5 10.4962 22.5562 10.7775 22.5562 13.5C22.5562 16.2225 22.5 16.5488 22.5 17.6288H22.4325Z" fill="black"/>
</svg>
