<svg width="26" height="26" viewBox="0 0 26 26" fill="none" xmlns="http://www.w3.org/2000/svg">
<path d="M18.6785 8.76065C17.6276 8.7602 16.5929 9.02015 15.6669 9.51727C15.5825 9.29473 15.4323 9.10316 15.2363 8.96801C15.0403 8.83287 14.8079 8.76054 14.5698 8.76065H9.87419C9.72001 8.76056 9.56731 8.79087 9.42485 8.84983C9.28238 8.90879 9.15294 8.99526 9.04391 9.10429C8.93489 9.21331 8.84842 9.34276 8.78946 9.48522C8.73049 9.62769 8.70019 9.78038 8.70028 9.93456V24.0215C8.70019 24.1757 8.73049 24.3284 8.78945 24.4709C8.84842 24.6133 8.93488 24.7428 9.04391 24.8518C9.15293 24.9608 9.28238 25.0473 9.42485 25.1063C9.56731 25.1652 9.72 25.1955 9.87419 25.1954H14.5698C14.724 25.1955 14.8767 25.1652 15.0192 25.1063C15.1617 25.0473 15.2911 24.9608 15.4001 24.8518C15.5091 24.7428 15.5956 24.6133 15.6546 24.4709C15.7135 24.3284 15.7438 24.1757 15.7438 24.0215V17.565C15.7438 17.2537 15.8674 16.9551 16.0876 16.7349C16.3077 16.5148 16.6063 16.3911 16.9177 16.3911C17.229 16.3911 17.5276 16.5148 17.7478 16.7349C17.9679 16.9551 18.0916 17.2537 18.0916 17.565V24.0215C18.0915 24.1757 18.1218 24.3284 18.1808 24.4709C18.2397 24.6133 18.3262 24.7428 18.4352 24.8518C18.5442 24.9608 18.6737 25.0473 18.8162 25.1063C18.9586 25.1652 19.1113 25.1955 19.2655 25.1954H23.9611C24.1153 25.1955 24.268 25.1652 24.4105 25.1063C24.553 25.0473 24.6824 24.9608 24.7914 24.8518C24.9005 24.7428 24.9869 24.6133 25.0459 24.4709C25.1048 24.3284 25.1351 24.1757 25.1351 24.0215V15.2172C25.1329 13.5054 24.452 11.8644 23.2416 10.6541C22.0313 9.4437 20.3903 8.76278 18.6785 8.76065ZM22.7872 22.8476H20.4394V17.565C20.4394 16.631 20.0684 15.7352 19.4079 15.0748C18.7475 14.4143 17.8517 14.0433 16.9177 14.0433C15.9836 14.0433 15.0879 14.4143 14.4274 15.0748C13.767 15.7352 13.3959 16.631 13.3959 17.565V22.8476H11.0481V11.1085H13.3959V11.9339C13.3961 12.1771 13.4717 12.4143 13.6125 12.6127C13.7532 12.8111 13.952 12.9609 14.1816 13.0414C14.4111 13.122 14.6599 13.1293 14.8938 13.0623C15.1276 12.9953 15.3349 12.8574 15.487 12.6676C16.0138 11.9985 16.7364 11.5106 17.5539 11.2721C18.3714 11.0336 19.243 11.0563 20.047 11.337C20.851 11.6178 21.5472 12.1427 22.0385 12.8383C22.5297 13.5339 22.7915 14.3656 22.7872 15.2172V22.8476ZM6.35245 8.76065H1.6568C1.50261 8.76056 1.34992 8.79087 1.20746 8.84983C1.06499 8.90879 0.935547 8.99526 0.826521 9.10429C0.717496 9.21331 0.63103 9.34276 0.572066 9.48522C0.513103 9.62769 0.482799 9.78038 0.482887 9.93456V24.0215C0.482797 24.1757 0.5131 24.3284 0.572063 24.4709C0.631026 24.6133 0.717492 24.7428 0.826518 24.8518C0.935544 24.9608 1.06499 25.0473 1.20746 25.1063C1.34992 25.1652 1.50261 25.1955 1.6568 25.1954H6.35245C6.50664 25.1955 6.65933 25.1652 6.80179 25.1063C6.94426 25.0473 7.07371 24.9608 7.18273 24.8518C7.29176 24.7428 7.37822 24.6133 7.43719 24.4709C7.49615 24.3284 7.52645 24.1757 7.52636 24.0215V9.93456C7.52645 9.78038 7.49615 9.62769 7.43718 9.48522C7.37822 9.34276 7.29176 9.21331 7.18273 9.10429C7.0737 8.99526 6.94426 8.90879 6.80179 8.84983C6.65933 8.79087 6.50664 8.76056 6.35245 8.76065ZM5.17854 22.8476H2.83071V11.1085H5.17854V22.8476ZM4.02182 0.00678106C3.50807 -0.0239714 2.99344 0.0500952 2.50921 0.224477C2.02498 0.398859 1.58128 0.669911 1.2051 1.02115C0.828912 1.37239 0.5281 1.79648 0.320955 2.26762C0.11381 2.73876 0.00466131 3.24712 0.000146064 3.76177C-0.00436918 4.27642 0.0958437 4.78661 0.29469 5.26131C0.493537 5.73602 0.786862 6.16532 1.15683 6.5231C1.52679 6.88089 1.96567 7.15968 2.44676 7.34254C2.92785 7.52539 3.44111 7.60847 3.95532 7.58674H3.98857C4.50368 7.61733 5.01961 7.54258 5.50486 7.36704C5.9901 7.1915 6.43446 6.91887 6.81077 6.5658C7.18709 6.21272 7.48746 5.78663 7.69354 5.31355C7.89962 4.84047 8.00707 4.33033 8.00933 3.81432C8.0116 3.29831 7.90862 2.78725 7.7067 2.31238C7.50478 1.83751 7.20816 1.4088 6.83495 1.05244C6.46175 0.69608 6.0198 0.419558 5.53612 0.23977C5.05243 0.0599821 4.53718 -0.0192955 4.02182 0.00678106ZM3.98858 5.23891H3.95532C3.75231 5.26356 3.54638 5.24452 3.35133 5.18307C3.15629 5.12161 2.97663 5.01916 2.82442 4.88259C2.67221 4.74601 2.55097 4.57847 2.46881 4.3912C2.38666 4.20393 2.34549 4.00125 2.34808 3.79677C2.34808 2.92091 3.00497 2.3546 4.02182 2.3546C4.2269 2.32726 4.43546 2.34418 4.63345 2.40423C4.83144 2.46428 5.01426 2.56607 5.1696 2.70272C5.32494 2.83938 5.44919 3.00774 5.53399 3.19646C5.61878 3.38518 5.66215 3.58988 5.66117 3.79677C5.66117 4.67262 5.00428 5.23891 3.98858 5.23891Z" fill="black"/>
</svg>
