<svg width="67" height="75" viewBox="0 0 67 75" fill="none" xmlns="http://www.w3.org/2000/svg">
<path d="M36.0411 25.0214L30.3127 26.5033M35.6088 23.3508L36.4734 26.6908M37.9188 32.2743L32.2328 33.7453M37.4863 30.6038L38.3508 33.9439M39.7964 39.5272L34.1531 40.9886M39.3636 37.8569L40.2281 41.1969M6.43148 28.3766L3.10746 32.4358C3.0004 32.5661 2.93344 32.7247 2.9147 32.8923C2.89596 33.0599 2.92624 33.2294 3.00188 33.3801L5.67678 38.7291C5.96442 39.3026 6.75212 39.3816 7.14717 38.8769L11.5651 33.2274M24.9711 43.5676L24.1804 39.521M26.7669 52.7589L25.9762 48.7122M59.7094 54.6496L49.4614 69.1724C47.7817 71.5526 45.2483 73.1929 42.3891 73.7515C39.3241 74.3504 36.3082 73.6508 33.9074 72.0358C31.5078 70.4207 29.7233 67.8902 29.1249 64.8276L27.7721 57.9035M9.32487 24.8418L15.2148 17.6489C16.4545 16.1356 18.2188 15.1449 20.1562 14.8742C22.1031 14.602 23.9979 15.0791 25.5327 16.0973C27.0666 17.117 28.2392 18.678 28.7429 20.5783L37.2174 52.5504C37.4879 53.5701 38.8251 53.8113 39.4356 52.9503L45.2692 44.701M22.3916 30.3655L23.1752 34.3763" stroke="black" stroke-width="1.77562" stroke-miterlimit="10" stroke-linecap="round" stroke-linejoin="round"/>
<path d="M14.3843 29.6218L20.0238 22.4104C20.2782 22.0846 20.7975 22.2096 20.8768 22.6152L21.5505 26.0635M54.4263 51.0029L59.7028 54.6192C60.874 55.4219 62.4756 55.1161 63.2687 53.9384C64.0523 52.7748 63.7511 51.1976 62.594 50.4046L48.1296 40.4915C46.9583 39.6888 45.3567 39.9946 44.5637 41.1723C43.7801 42.3359 44.0812 43.9131 45.2383 44.7061L50.7863 48.5084" stroke="black" stroke-width="1.77562" stroke-miterlimit="10" stroke-linecap="round" stroke-linejoin="round"/>
<path d="M15.3101 30.4944C13.23 28.538 10.8924 26.3143 8.79508 24.3422C7.87143 23.4737 6.41716 23.5269 5.55855 24.4597C4.71298 25.3785 4.76392 26.8061 5.67343 27.6615C7.75354 29.6178 10.0911 31.8416 12.1884 33.8137C13.1121 34.6822 14.5663 34.629 15.425 33.6962C16.2705 32.7774 16.2196 31.3499 15.3101 30.4944Z" stroke="black" stroke-width="1.77562" stroke-miterlimit="10" stroke-linecap="round" stroke-linejoin="round"/>
<path d="M24.2379 39.511C25.6593 39.2333 26.5864 37.8559 26.3087 36.4346C26.031 35.0133 24.6536 34.0862 23.2323 34.3639C21.8109 34.6416 20.8838 36.0189 21.1615 37.4403C21.4392 38.8616 22.8166 39.7887 24.2379 39.511Z" stroke="black" stroke-width="1.77562" stroke-miterlimit="10" stroke-linecap="round" stroke-linejoin="round"/>
<path d="M26.0338 48.7022C27.4552 48.4245 28.3823 47.0471 28.1046 45.6258C27.8269 44.2044 26.4495 43.2773 25.0282 43.555C23.6068 43.8327 22.6797 45.2101 22.9574 46.6314C23.2351 48.0528 24.6125 48.9799 26.0338 48.7022Z" stroke="black" stroke-width="1.77562" stroke-miterlimit="10" stroke-linecap="round" stroke-linejoin="round"/>
<path d="M27.8297 57.8936C29.2511 57.6159 30.1782 56.2385 29.9005 54.8172C29.6227 53.3958 28.2454 52.4687 26.8241 52.7464C25.4027 53.0241 24.4756 54.4015 24.7533 55.8228C25.031 57.2442 26.4084 58.1713 27.8297 57.8936Z" stroke="black" stroke-width="1.77562" stroke-miterlimit="10" stroke-linecap="round" stroke-linejoin="round"/>
<path d="M48.1986 59.4989C49.9894 59.149 51.1576 57.4135 50.8077 55.6227C50.4578 53.8318 48.7223 52.6636 46.9314 53.0135C45.1405 53.3634 43.9724 55.0989 44.3223 56.8898C44.6722 58.6807 46.4077 59.8488 48.1986 59.4989Z" stroke="black" stroke-width="1.77562" stroke-miterlimit="10" stroke-linecap="round" stroke-linejoin="round"/>
<path d="M38.9276 67.4939C40.7184 67.144 41.8866 65.4085 41.5367 63.6176C41.1868 61.8268 39.4513 60.6586 37.6604 61.0085C35.8695 61.3584 34.7014 63.0939 35.0513 64.8848C35.4012 66.6757 37.1367 67.8438 38.9276 67.4939Z" stroke="black" stroke-width="1.77562" stroke-miterlimit="10" stroke-linecap="round" stroke-linejoin="round"/>
</svg>
