<svg width="32" height="32" viewBox="0 0 32 32" fill="none" xmlns="http://www.w3.org/2000/svg">
<path d="M20.5337 14.8802L14.0003 10.6669C13.7976 10.5499 13.5677 10.4883 13.3337 10.4883C13.0996 10.4883 12.8697 10.5499 12.667 10.6669C12.4693 10.7809 12.3042 10.9438 12.1875 11.1399C12.0707 11.336 12.0063 11.5588 12.0003 11.7869V20.2136C12.0021 20.4512 12.0672 20.684 12.1891 20.8879C12.311 21.0919 12.4852 21.2595 12.6937 21.3736C12.8876 21.4877 13.1086 21.5476 13.3337 21.5469C13.5698 21.5306 13.7986 21.4574 14.0003 21.3336L20.5337 17.1202C20.7208 16.9994 20.8746 16.8335 20.9812 16.6379C21.0877 16.4422 21.1435 16.223 21.1435 16.0002C21.1435 15.7775 21.0877 15.5582 20.9812 15.3626C20.8746 15.1669 20.7208 15.0011 20.5337 14.8802ZM14.667 17.7602V14.2402L17.3337 16.0002L14.667 17.7602ZM25.8403 6.01356L23.7737 5.7469C18.655 5.12018 13.479 5.12018 8.36033 5.7469L6.29366 6.01356C5.29994 6.12171 4.38085 6.59205 3.71189 7.3348C3.04293 8.07754 2.67096 9.04065 2.66699 10.0402V21.9602C2.67547 22.945 3.041 23.8932 3.69572 24.6289C4.35044 25.3645 5.24986 25.8376 6.22699 25.9602L8.29366 26.2136C10.8507 26.5243 13.4245 26.6757 16.0003 26.6669C18.5767 26.6668 21.1505 26.5065 23.707 26.1869L25.7737 25.9336C26.7508 25.8109 27.6502 25.3378 28.3049 24.6022C28.9597 23.8666 29.3252 22.9183 29.3337 21.9336V10.0402C29.3316 9.05086 28.969 8.09617 28.3137 7.35495C27.6584 6.61373 26.7553 6.13683 25.7737 6.01356H25.8403ZM26.7337 22.0136C26.7347 22.3495 26.609 22.6734 26.3816 22.9206C26.1542 23.1678 25.8418 23.32 25.507 23.3469L23.4403 23.6002C18.5439 24.2136 13.5901 24.2136 8.69366 23.6002L6.62699 23.3469C6.29217 23.32 5.97983 23.1678 5.75241 22.9206C5.52499 22.6734 5.39925 22.3495 5.40033 22.0136V10.0402C5.41622 9.70949 5.54773 9.39484 5.77191 9.15116C5.9961 8.90748 6.29872 8.75025 6.62699 8.7069L8.62699 8.40023C13.524 7.79576 18.4767 7.79576 23.3737 8.40023L25.4403 8.65356C25.7686 8.69691 26.0712 8.85414 26.2954 9.09782C26.5196 9.3415 26.6511 9.65616 26.667 9.9869L26.7337 22.0136Z" fill="black"/>
</svg>
